<svg version="1.1" xmlns="http://www.w3.org/2000/svg" xmlns:xlink="http://www.w3.org/1999/xlink" width="224.66667" height="124" viewBox="0,0,224.66667,124"><g transform="translate(-127.66667,-118)"><g data-paper-data="{&quot;isPaintingLayer&quot;:true}" fill-rule="nonzero" stroke-width="0" stroke-linecap="butt" stroke-linejoin="miter" stroke-miterlimit="10" stroke-dasharray="" stroke-dashoffset="0" style="mix-blend-mode: normal"><g fill="#ffffff"><path d="M190.66667,202.5c0,-21.81525 17.68475,-39.5 39.5,-39.5c21.81525,0 39.5,17.68475 39.5,39.5c0,21.81525 -17.68475,39.5 -39.5,39.5c-21.81525,0 -39.5,-17.68475 -39.5,-39.5z" stroke="none"/><path d="M127.66667,202.5c0,-21.81525 17.68475,-39.5 39.5,-39.5c21.81525,0 39.5,17.68475 39.5,39.5c0,21.81525 -17.68475,39.5 -39.5,39.5c-21.81525,0 -39.5,-17.68475 -39.5,-39.5z" stroke="none"/><path d="M224,187.33333c0,-30.19157 24.4751,-54.66667 54.66667,-54.66667c30.19157,0 54.66667,24.4751 54.66667,54.66667c0,30.19157 -24.4751,54.66667 -54.66667,54.66667c-30.19157,0 -54.66667,-24.4751 -54.66667,-54.66667z" stroke="none"/><path d="M167.16667,242v-45h162.66667v45z" stroke="#000000"/><path d="M152,172.66667c0,-30.19157 24.47509,-54.66667 54.66666,-54.66667c30.19157,0 54.66667,24.4751 54.66667,54.66667c0,30.19157 -24.4751,54.66666 -54.66667,54.66666c-30.19157,0 -54.66666,-24.4751 -54.66666,-54.66666z" stroke="none"/><path d="M307.33333,219.5c0,-12.42641 10.07359,-22.5 22.5,-22.5c12.42641,0 22.5,10.07359 22.5,22.5c0,12.42641 -10.07359,22.5 -22.5,22.5c-12.42641,0 -22.5,-10.07359 -22.5,-22.5z" stroke="none"/></g><path d="M213.83333,191c0,-14.45145 11.71522,-26.16667 26.16667,-26.16667c14.45145,0 26.16667,11.71522 26.16667,26.16667c0,14.45145 -11.71522,26.16667 -26.16667,26.16667c-14.45145,0 -26.16667,-11.71522 -26.16667,-26.16667z" fill="#000000" stroke="#000000"/><path d="M203.66667,197v-12h72.66667v12z" fill="#000000" stroke="#000000"/><path d="M246,227.33334l-12,0l0,-72.66667l12,0z" fill="#000000" stroke="#000000"/><path d="M218.55109,220.93419l-8.48528,-8.48528l51.3831,-51.3831l8.48528,8.48528z" fill="#000000" stroke="#000000"/><path d="M269.93419,212.44891l-8.48528,8.48528l-51.3831,-51.3831l8.48528,-8.48528z" fill="#000000" stroke="#000000"/><path d="M227.16667,191c0,-7.08765 5.74568,-12.83333 12.83333,-12.83333c7.08765,0 12.83333,5.74568 12.83333,12.83333c0,7.08765 -5.74568,12.83333 -12.83333,12.83333c-7.08765,0 -12.83333,-5.74568 -12.83333,-12.83333z" fill="#ffffff" stroke="#000000"/></g></g></svg>